<svg width="100" height="101" viewBox="0 0 100 101" fill="none" xmlns="http://www.w3.org/2000/svg">
<path d="M69.21 14.5335C60.6727 11.3233 51.2024 10.8767 42.4981 13.6555C34.178 16.3058 26.6583 21.6609 21.107 28.6044C15.4656 35.66 11.8739 44.3758 11.1402 53.5381C10.3942 62.8647 12.5519 72.4782 17.1301 80.531C19.3112 84.3672 22.0579 87.9164 25.31 90.8271C28.5543 93.7319 32.2774 95.9832 36.2588 97.6155C44.6291 101.047 54.0983 101.766 62.944 100.238C71.4757 98.7619 79.67 94.809 85.6644 88.2322C91.6955 81.6173 95.1748 72.9351 96.3193 63.9649C96.6132 61.6662 96.7535 59.349 96.758 57.026C96.7446 47.8128 94.6047 38.4249 89.6413 30.6913C84.8049 23.1463 77.3665 17.6038 69.21 14.5335ZM95.4008 57.026C95.3874 65.935 93.242 74.9087 88.4423 82.3693C83.7594 89.6424 76.7152 94.78 68.7079 97.3749C60.401 100.065 51.2124 100.29 42.7475 98.2356C38.6437 97.2384 34.6712 95.6592 31.0516 93.408C27.4733 91.1787 24.3514 88.3028 21.7227 84.9456C16.2851 78.0068 13.0908 69.2355 12.4751 60.3358C11.8505 51.3146 13.9993 42.3409 18.5786 34.6501C22.9987 27.2219 29.5274 21.1577 37.0961 17.3644C45.0544 13.3778 54.0437 12.2638 62.6946 14.0974C71.0192 15.8593 78.9185 20.1848 84.7871 26.6065C90.6456 33.0143 93.9523 41.5693 94.9977 50.2665C95.2694 52.5085 95.3963 54.7655 95.4008 57.026ZM79.6155 28.5153C79.6155 28.5153 89.3519 39.5205 87.4881 43.6331C86.2701 46.3124 84.5967 45.786 83.6915 42.4392C82.7864 39.0878 81.0807 38.8715 80.1855 39.3365C78.1492 40.3939 79.0911 45.1046 82.7095 47.733C86.3335 50.3648 87.2342 55.9166 83.1582 59.7481C79.0811 63.5796 80.5296 65.5868 79.3984 67.2607C78.2672 68.9335 75.3224 71.0876 69.1821 75.6329C63.0431 80.1794 67.6168 68.7554 69.4271 63.9695C71.2363 59.1847 66.9387 51.2869 62.8616 47.2205C58.7855 43.1542 55.3063 44.7564 51.2302 40.6901C47.1542 36.6237 53.7186 35.6647 52.986 33.0328C52.2479 30.3998 50.3251 31.1194 49.1939 28.2469C48.5381 26.588 50.8317 25.3282 53.1029 24.4675C53.7053 24.2419 53.5149 23.3106 52.8769 23.3488C51.1167 23.4471 49.077 23.6253 47.3802 23.9411C43.5302 24.6595 44.2584 30.6775 39.9107 31.1194C35.1232 31.6029 31.5137 27.0299 31.9746 26.6019C32.4411 26.1738 45.1401 15.7239 61.0479 18.7456C72.1459 20.8569 79.6155 28.5153 79.6155 28.5153ZM51.9851 90.0601C50.0312 91.5605 46.6699 93.2715 46.6699 93.2715C46.6699 93.2715 30.6675 87.6353 24.6631 78.5007C17.0177 66.8605 19.1754 57.1116 19.1754 57.1116C19.1754 57.1116 27.5367 52.1938 29.9249 58.6954C32.3142 65.1969 33.1191 61.2763 37.4034 69.8787C41.6887 78.4869 41.259 84.5974 46.5842 84.2873C51.9083 83.9773 53.9402 88.5608 51.9851 90.0601ZM80.3614 75.7555C78.6881 78.9751 72.019 84.4805 74.612 77.3485C74.6065 77.3485 82.0359 72.5395 80.3614 75.7555ZM87.6184 64.3362C92.1609 63.7161 91.7133 71.3317 90.0032 72.3474C88.8809 73.0103 88.7362 71.3039 87.9668 70.4756C87.1975 69.6485 86.3792 72.2815 84.1346 72.2722C81.8912 72.2572 83.2707 70.2454 84.0311 67.9653C84.796 65.6805 82.2887 65.0604 87.6184 64.3362ZM6.18239 90.1167C6.13674 90.023 6.09554 89.9236 6.05546 89.8298C5.11467 87.6862 4.34088 85.4581 3.64837 83.2161C2.30899 78.8721 1.327 74.4066 0.721331 69.8926C-0.0747248 63.9787 -0.247296 57.9758 0.381755 52.0342C1.11435 45.1046 2.91132 38.3405 5.80162 32.0449C9.00031 25.0644 13.525 18.6149 19.0217 13.3963C23.6411 9.01069 29.0164 5.55516 34.8838 3.28888C39.9641 1.32917 45.3573 0.299565 50.7682 0.0554682C55.4198 -0.151609 60.0837 0.228997 64.6674 1.0654C67.9831 1.6716 71.2586 2.52304 74.4528 3.62784C75.7477 4.07439 77.0458 4.55333 78.2895 5.13175C79.0855 5.50311 78.3941 6.72128 77.607 6.34992C77.5302 6.31175 77.4522 6.27936 77.3754 6.24581C77.6025 6.34992 77.3398 6.23193 77.2262 6.17987C77.0904 6.12434 76.9546 6.06765 76.8198 6.01097C76.4346 5.85132 76.0505 5.70093 75.6653 5.55516C74.5296 5.1225 73.3806 4.73264 72.2227 4.37054C68.739 3.28426 65.1651 2.47561 61.5589 1.98279C56.8449 1.33379 52.053 1.21117 47.3212 1.72828C41.9147 2.32059 36.5717 3.79674 31.654 6.21804C25.8444 9.07664 20.7051 13.1893 16.3975 18.1348C11.4441 23.8277 7.50284 30.5086 4.95991 37.71C2.78885 43.8633 1.62093 50.3602 1.39492 56.9092C1.20119 62.4748 1.65767 68.0555 2.67083 73.5228C3.40454 77.4665 4.4088 81.3593 5.71143 85.1434C5.92409 85.7681 6.1501 86.3894 6.38057 87.0048C6.47632 87.2582 6.57095 87.508 6.67004 87.7568C6.71569 87.8748 6.76134 87.9916 6.81032 88.1096C6.82925 88.157 6.84707 88.2033 6.86488 88.2461C6.86488 88.2507 6.86488 88.2507 6.86933 88.2554C7.02743 88.6406 7.18664 89.0258 7.3581 89.4018C7.7333 90.2197 6.56204 90.93 6.18239 90.1167ZM7.92369 97.8075C7.91924 97.8075 7.91478 97.8075 7.91033 97.8029C7.91478 97.8029 7.91924 97.8029 7.92369 97.8075ZM11.1725 96.9526C11.0456 96.6044 10.9231 96.2562 10.7962 95.908C10.7962 95.9033 10.7917 95.9033 10.7917 95.8987C10.7784 95.8432 10.7561 95.7865 10.7283 95.7391C10.7193 95.7252 10.7104 95.7206 10.7015 95.7113C10.647 95.6222 10.5791 95.547 10.4844 95.4857C10.3397 95.3966 10.1226 95.3585 9.96003 95.4152C9.91439 95.429 9.86874 95.4522 9.82866 95.4765C9.81975 95.4811 9.80639 95.4811 9.79637 95.4857C9.08159 95.8281 8.37126 96.1717 7.65648 96.5153C7.5162 96.5813 7.37591 96.7826 7.34474 96.9376C7.308 97.0984 7.31802 97.2488 7.38037 97.3992C7.48502 97.6525 7.69768 97.7936 7.93705 97.8214C7.96488 97.8411 7.99161 97.855 8.01387 97.8735C8.01833 97.8781 8.02835 97.8827 8.03725 97.892C8.05061 97.9012 8.05952 97.9116 8.06397 97.9163C8.13634 97.9811 8.21316 98.047 8.28553 98.1129C8.63847 98.4334 8.99586 98.7481 9.43898 98.9216C9.68837 99.0211 9.96449 99.035 10.2217 98.969C10.5434 98.8846 10.7873 98.659 10.9776 98.386C11.0411 98.2969 11.0957 98.202 11.1402 98.1037C11.2493 97.8642 11.3851 97.5819 11.3039 97.3136C11.2627 97.1828 11.2126 97.0695 11.1725 96.9526ZM7.9326 97.8122C7.81013 97.7844 7.83796 97.7555 7.91478 97.8029C7.91924 97.8029 7.91924 97.8075 7.92369 97.8075C7.9326 97.8122 7.9415 97.8122 7.95598 97.8168C8.00942 97.8214 8.06397 97.8168 8.11853 97.8075C8.06397 97.8168 8.00496 97.826 8.04616 97.826C8.10962 97.826 8.07733 97.8596 7.96043 97.8214C7.95598 97.8214 7.95598 97.8214 7.95041 97.8214C7.9415 97.8168 7.93705 97.8168 7.92814 97.8122C7.92814 97.8075 7.92814 97.8075 7.9326 97.8122ZM7.95041 97.8168C7.96488 97.8214 7.97824 97.826 7.9827 97.826C7.96934 97.826 7.96488 97.8214 7.95598 97.8214C7.95598 97.8168 7.95041 97.8168 7.95041 97.8168ZM99.3143 15.6904C97.9838 14.5486 96.6533 13.4056 95.324 12.2684C95.2471 11.1729 95.2739 10.0773 95.2917 8.97715C95.3006 8.37558 95.3006 7.77401 95.2694 7.17245C95.2427 6.67384 95.2238 6.14285 94.9254 5.72869C94.5858 5.25438 93.9801 5.1225 93.478 5.40015C92.9759 5.67779 92.722 6.23193 92.5316 6.76292C92.2466 7.56694 92.0162 8.39872 91.7812 9.22703C90.9084 8.47507 90.0299 7.72658 89.157 6.97463C88.8453 6.70739 88.4512 6.43437 88.2797 6.03526C88.1027 5.61648 88.0982 5.11787 88.0214 4.67133C87.8811 3.88582 87.4692 3.16278 86.7455 2.82383C84.7414 1.88793 84.2126 5.16068 84.1168 6.52808C84.0044 8.1928 84.7771 9.41906 85.8503 10.4255C85.0988 10.5377 84.3517 10.6557 83.6013 10.7784C82.6193 10.9426 81.6374 11.1115 80.6654 11.3186C79.8237 11.4968 78.3028 11.8172 78.8595 13.0909C79.3761 14.2663 81.0139 14.515 82.0861 14.6943C83.5835 14.9431 85.0855 15.1872 86.6007 15.3329C88.0169 15.4694 89.4921 15.3757 90.8761 15.7424C92.211 16.0953 93.2743 17.0254 94.45 17.7218C95.6134 18.4125 97.0207 18.9018 98.3634 18.549C98.948 18.394 99.6349 18.055 99.8977 17.4581C100.192 16.7767 99.8075 16.1323 99.3143 15.6904ZM93.6227 7.84458C93.6907 7.60974 93.7586 7.37027 93.8398 7.1389C93.8487 7.11576 93.871 7.07412 93.8988 7.02206C93.9846 8.36633 93.9033 9.71522 93.9122 11.0595C93.5815 10.7737 93.2475 10.4915 92.9169 10.2046C93.1518 9.41906 93.3867 8.63009 93.6227 7.84458ZM98.084 17.1665C97.613 17.3077 97.1109 17.2753 96.64 17.1573C95.5633 16.8889 94.6671 16.2075 93.7452 15.6013C92.8122 14.9905 91.8447 14.4826 90.7491 14.2755C89.5957 14.0546 88.42 14.0685 87.2476 13.9794C85.9995 13.8857 84.7592 13.711 83.5201 13.5143C82.5648 13.3593 81.3523 13.3258 80.4839 12.804C80.5017 12.7994 80.5207 12.7901 80.534 12.7901C80.9137 12.7011 81.2933 12.6259 81.6741 12.5507C82.4791 12.3899 83.2896 12.2499 84.099 12.118C84.904 11.9861 85.7101 11.8589 86.515 11.742C86.7911 11.6992 87.0717 11.6622 87.3478 11.6194C87.3745 11.6148 87.4514 11.6055 87.5015 11.5963C87.5104 11.5963 87.5148 11.5963 87.5237 11.5916C87.546 11.587 87.556 11.587 87.5237 11.5916C88.1795 11.5014 88.4601 10.6985 87.8678 10.2798C87.1207 9.7534 86.3335 9.1796 85.8548 8.36633C85.2981 7.41192 85.4339 6.33604 85.6956 5.30644C85.7457 5.11325 85.8949 4.14496 86.0942 4.07439C86.4337 3.95639 86.6598 4.77429 86.6954 4.95823C86.8902 5.9404 86.9403 6.8011 87.6907 7.53455C88.4968 8.32352 89.4064 9.01995 90.2615 9.74877C91.1522 10.51 92.0395 11.2712 92.9302 12.0382C94.7394 13.5895 96.5453 15.1363 98.3545 16.6876C98.3779 16.7061 98.5405 16.8935 98.5861 16.9086C98.5861 16.9086 98.5861 16.9086 98.5906 16.9086C98.4314 17.0208 98.2688 17.1098 98.084 17.1665ZM98.644 16.9317C98.6629 16.9595 98.7119 16.9595 98.644 16.9317V16.9317Z" fill="#1D85D9"/>
</svg>
